<svg xmlns="http://www.w3.org/2000/svg" xmlns:xlink="http://www.w3.org/1999/xlink" width="475" zoomAndPan="magnify" viewBox="0 0 356.25 131.249995" height="175" preserveAspectRatio="xMidYMid meet" version="1.0"><defs><g/><clipPath id="265fd789b6"><path d="M 11 66 L 43 66 L 43 82.460938 L 11 82.460938 Z M 11 66 " clip-rule="nonzero"/></clipPath><clipPath id="b7c5a05eed"><path d="M 23 52 L 43.464844 52 L 43.464844 81 L 23 81 Z M 23 52 " clip-rule="nonzero"/></clipPath></defs><g clip-path="url(#265fd789b6)"><path fill="#0000ff" d="M 42.707031 80.660156 C 41.503906 82.191406 39.292969 82.449219 37.769531 81.246094 L 25.945312 71.882812 C 21.695312 74.832031 15.863281 74.808594 11.589844 71.4375 L 14.582031 67.621094 C 17.714844 70.085938 22.238281 69.558594 24.726562 66.449219 Z M 42.707031 80.660156 " fill-opacity="1" fill-rule="nonzero"/></g><g clip-path="url(#b7c5a05eed)"><path fill="#009245" d="M 43.460938 78.480469 C 43.460938 79.242188 43.214844 80.011719 42.707031 80.660156 L 24.726562 66.449219 C 24.742188 66.433594 24.753906 66.414062 24.769531 66.398438 C 27.253906 63.238281 26.714844 58.660156 23.570312 56.164062 L 26.566406 52.347656 C 30.871094 55.753906 32.246094 61.503906 30.320312 66.367188 L 42.125 75.710938 C 43.003906 76.40625 43.460938 77.4375 43.460938 78.480469 Z M 43.460938 78.480469 " fill-opacity="1" fill-rule="nonzero"/></g><path fill="#ff0000" d="M 14.582031 67.621094 L 11.589844 71.4375 C 6.367188 67.324219 5.433594 59.679688 9.507812 54.421875 L 13.316406 57.429688 C 10.882812 60.589844 11.4375 65.128906 14.566406 67.605469 C 14.570312 67.609375 14.578125 67.617188 14.582031 67.621094 Z M 14.582031 67.621094 " fill-opacity="1" fill-rule="nonzero"/><path fill="#ffff00" d="M 26.566406 52.347656 L 23.570312 56.164062 C 23.570312 56.164062 23.566406 56.164062 23.566406 56.160156 C 20.414062 53.667969 15.847656 54.207031 13.363281 57.367188 C 13.347656 57.390625 13.328125 57.410156 13.316406 57.429688 L 9.507812 54.421875 C 13.640625 49.097656 21.292969 48.171875 26.566406 52.347656 Z M 26.566406 52.347656 " fill-opacity="1" fill-rule="nonzero"/><g fill="#000000" fill-opacity="1"><g transform="translate(52.165863, 74.200987)"><g><path d="M 6.625 -15.421875 L 6.625 -10.40625 L 15.390625 -10.40625 L 15.390625 -6.890625 L 6.625 -6.890625 L 6.625 0 L 2.25 0 L 2.25 -18.9375 L 16.546875 -18.9375 L 16.546875 -15.421875 Z M 6.625 -15.421875 "/></g></g></g><g fill="#000000" fill-opacity="1"><g transform="translate(74.804029, 74.200987)"><g><path d="M 2.25 -18.9375 L 6.625 -18.9375 L 6.625 -3.5625 L 16.125 -3.5625 L 16.125 0 L 2.25 0 Z M 2.25 -18.9375 "/></g></g></g><g fill="#000000" fill-opacity="1"><g transform="translate(96.495639, 74.200987)"><g><path d="M 16.90625 -3.515625 L 16.90625 0 L 2.25 0 L 2.25 -18.9375 L 16.546875 -18.9375 L 16.546875 -15.421875 L 6.59375 -15.421875 L 6.59375 -11.3125 L 15.390625 -11.3125 L 15.390625 -7.890625 L 6.59375 -7.890625 L 6.59375 -3.515625 Z M 16.90625 -3.515625 "/></g></g></g><g fill="#000000" fill-opacity="1"><g transform="translate(119.99924, 74.200987)"><g><path d="M 14.171875 0 L 9.609375 -6.578125 L 5.109375 0 L 0.078125 0 L 7.09375 -9.625 L 0.4375 -18.9375 L 5.40625 -18.9375 L 9.765625 -12.796875 L 14.03125 -18.9375 L 18.765625 -18.9375 L 12.171875 -9.796875 L 19.234375 0 Z M 14.171875 0 "/></g></g></g><g fill="#000000" fill-opacity="1"><g transform="translate(144.665758, 74.200987)"><g/></g></g><g fill="#000000" fill-opacity="1"><g transform="translate(157.676027, 74.200987)"><g><path d="M 8.46875 0.328125 C 6.96875 0.328125 5.519531 0.125 4.125 -0.28125 C 2.726562 -0.6875 1.601562 -1.210938 0.75 -1.859375 L 2.25 -5.171875 C 3.0625 -4.566406 4.023438 -4.082031 5.140625 -3.71875 C 6.253906 -3.363281 7.375 -3.1875 8.5 -3.1875 C 9.738281 -3.1875 10.65625 -3.367188 11.25 -3.734375 C 11.84375 -4.109375 12.140625 -4.601562 12.140625 -5.21875 C 12.140625 -5.664062 11.960938 -6.035156 11.609375 -6.328125 C 11.265625 -6.628906 10.816406 -6.867188 10.265625 -7.046875 C 9.710938 -7.234375 8.96875 -7.4375 8.03125 -7.65625 C 6.59375 -8 5.410156 -8.34375 4.484375 -8.6875 C 3.566406 -9.03125 2.78125 -9.578125 2.125 -10.328125 C 1.46875 -11.085938 1.140625 -12.097656 1.140625 -13.359375 C 1.140625 -14.460938 1.4375 -15.457031 2.03125 -16.34375 C 2.625 -17.238281 3.519531 -17.945312 4.71875 -18.46875 C 5.914062 -18.988281 7.378906 -19.25 9.109375 -19.25 C 10.316406 -19.25 11.5 -19.101562 12.65625 -18.8125 C 13.8125 -18.53125 14.820312 -18.117188 15.6875 -17.578125 L 14.328125 -14.25 C 12.585938 -15.238281 10.84375 -15.734375 9.09375 -15.734375 C 7.863281 -15.734375 6.953125 -15.535156 6.359375 -15.140625 C 5.773438 -14.742188 5.484375 -14.222656 5.484375 -13.578125 C 5.484375 -12.929688 5.820312 -12.445312 6.5 -12.125 C 7.175781 -11.8125 8.210938 -11.503906 9.609375 -11.203125 C 11.046875 -10.859375 12.222656 -10.515625 13.140625 -10.171875 C 14.066406 -9.828125 14.859375 -9.285156 15.515625 -8.546875 C 16.171875 -7.804688 16.5 -6.804688 16.5 -5.546875 C 16.5 -4.460938 16.195312 -3.472656 15.59375 -2.578125 C 14.988281 -1.691406 14.082031 -0.984375 12.875 -0.453125 C 11.664062 0.0664062 10.195312 0.328125 8.46875 0.328125 Z M 8.46875 0.328125 "/></g></g></g><g fill="#000000" fill-opacity="1"><g transform="translate(180.287156, 74.200987)"><g><path d="M 19.609375 -18.9375 L 19.609375 0 L 15.234375 0 L 15.234375 -7.765625 L 6.625 -7.765625 L 6.625 0 L 2.25 0 L 2.25 -18.9375 L 6.625 -18.9375 L 6.625 -11.46875 L 15.234375 -11.46875 L 15.234375 -18.9375 Z M 19.609375 -18.9375 "/></g></g></g><g fill="#000000" fill-opacity="1"><g transform="translate(207.495873, 74.200987)"><g><path d="M 11.40625 0.328125 C 9.445312 0.328125 7.675781 -0.09375 6.09375 -0.9375 C 4.519531 -1.789062 3.285156 -2.960938 2.390625 -4.453125 C 1.503906 -5.941406 1.0625 -7.613281 1.0625 -9.46875 C 1.0625 -11.320312 1.503906 -12.992188 2.390625 -14.484375 C 3.285156 -15.972656 4.519531 -17.140625 6.09375 -17.984375 C 7.675781 -18.828125 9.445312 -19.25 11.40625 -19.25 C 13.375 -19.25 15.140625 -18.828125 16.703125 -17.984375 C 18.273438 -17.140625 19.507812 -15.972656 20.40625 -14.484375 C 21.3125 -12.992188 21.765625 -11.320312 21.765625 -9.46875 C 21.765625 -7.613281 21.3125 -5.941406 20.40625 -4.453125 C 19.507812 -2.960938 18.273438 -1.789062 16.703125 -0.9375 C 15.140625 -0.09375 13.375 0.328125 11.40625 0.328125 Z M 11.40625 -3.40625 C 12.53125 -3.40625 13.539062 -3.660156 14.4375 -4.171875 C 15.34375 -4.691406 16.050781 -5.410156 16.5625 -6.328125 C 17.082031 -7.242188 17.34375 -8.289062 17.34375 -9.46875 C 17.34375 -10.632812 17.082031 -11.675781 16.5625 -12.59375 C 16.050781 -13.519531 15.34375 -14.238281 14.4375 -14.75 C 13.539062 -15.269531 12.53125 -15.53125 11.40625 -15.53125 C 10.289062 -15.53125 9.28125 -15.269531 8.375 -14.75 C 7.476562 -14.238281 6.769531 -13.519531 6.25 -12.59375 C 5.738281 -11.675781 5.484375 -10.632812 5.484375 -9.46875 C 5.484375 -8.289062 5.738281 -7.242188 6.25 -6.328125 C 6.769531 -5.410156 7.476562 -4.691406 8.375 -4.171875 C 9.28125 -3.660156 10.289062 -3.40625 11.40625 -3.40625 Z M 11.40625 -3.40625 "/></g></g></g><g fill="#000000" fill-opacity="1"><g transform="translate(235.678193, 74.200987)"><g><path d="M 10.4375 -18.9375 C 12.113281 -18.9375 13.566406 -18.65625 14.796875 -18.09375 C 16.035156 -17.53125 16.988281 -16.734375 17.65625 -15.703125 C 18.320312 -14.679688 18.65625 -13.46875 18.65625 -12.0625 C 18.65625 -10.675781 18.320312 -9.460938 17.65625 -8.421875 C 16.988281 -7.390625 16.035156 -6.597656 14.796875 -6.046875 C 13.566406 -5.492188 12.113281 -5.21875 10.4375 -5.21875 L 6.625 -5.21875 L 6.625 0 L 2.25 0 L 2.25 -18.9375 Z M 10.203125 -8.796875 C 11.515625 -8.796875 12.515625 -9.078125 13.203125 -9.640625 C 13.890625 -10.210938 14.234375 -11.019531 14.234375 -12.0625 C 14.234375 -13.125 13.890625 -13.9375 13.203125 -14.5 C 12.515625 -15.070312 11.515625 -15.359375 10.203125 -15.359375 L 6.625 -15.359375 L 6.625 -8.796875 Z M 10.203125 -8.796875 "/></g></g></g><g fill="#000000" fill-opacity="1"><g transform="translate(260.83152, 74.200987)"><g><path d="M 10.4375 -18.9375 C 12.113281 -18.9375 13.566406 -18.65625 14.796875 -18.09375 C 16.035156 -17.53125 16.988281 -16.734375 17.65625 -15.703125 C 18.320312 -14.679688 18.65625 -13.46875 18.65625 -12.0625 C 18.65625 -10.675781 18.320312 -9.460938 17.65625 -8.421875 C 16.988281 -7.390625 16.035156 -6.597656 14.796875 -6.046875 C 13.566406 -5.492188 12.113281 -5.21875 10.4375 -5.21875 L 6.625 -5.21875 L 6.625 0 L 2.25 0 L 2.25 -18.9375 Z M 10.203125 -8.796875 C 11.515625 -8.796875 12.515625 -9.078125 13.203125 -9.640625 C 13.890625 -10.210938 14.234375 -11.019531 14.234375 -12.0625 C 14.234375 -13.125 13.890625 -13.9375 13.203125 -14.5 C 12.515625 -15.070312 11.515625 -15.359375 10.203125 -15.359375 L 6.625 -15.359375 L 6.625 -8.796875 Z M 10.203125 -8.796875 "/></g></g></g><g fill="#000000" fill-opacity="1"><g transform="translate(285.984858, 74.200987)"><g><path d="M 2.25 -18.9375 L 6.625 -18.9375 L 6.625 0 L 2.25 0 Z M 2.25 -18.9375 "/></g></g></g><g fill="#000000" fill-opacity="1"><g transform="translate(300.212151, 74.200987)"><g><path d="M 19.609375 -18.9375 L 19.609375 0 L 16.015625 0 L 6.578125 -11.5 L 6.578125 0 L 2.25 0 L 2.25 -18.9375 L 5.875 -18.9375 L 15.28125 -7.4375 L 15.28125 -18.9375 Z M 19.609375 -18.9375 "/></g></g></g><g fill="#000000" fill-opacity="1"><g transform="translate(327.420868, 74.200987)"><g><path d="M 15.03125 -9.765625 L 19.046875 -9.765625 L 19.046875 -2.078125 C 18.015625 -1.304688 16.820312 -0.710938 15.46875 -0.296875 C 14.113281 0.117188 12.753906 0.328125 11.390625 0.328125 C 9.421875 0.328125 7.648438 -0.0859375 6.078125 -0.921875 C 4.515625 -1.765625 3.285156 -2.929688 2.390625 -4.421875 C 1.503906 -5.910156 1.0625 -7.59375 1.0625 -9.46875 C 1.0625 -11.34375 1.503906 -13.019531 2.390625 -14.5 C 3.285156 -15.988281 4.523438 -17.148438 6.109375 -17.984375 C 7.703125 -18.828125 9.488281 -19.25 11.46875 -19.25 C 13.125 -19.25 14.628906 -18.96875 15.984375 -18.40625 C 17.335938 -17.851562 18.472656 -17.046875 19.390625 -15.984375 L 16.578125 -13.390625 C 15.222656 -14.816406 13.59375 -15.53125 11.6875 -15.53125 C 10.476562 -15.53125 9.40625 -15.273438 8.46875 -14.765625 C 7.53125 -14.265625 6.796875 -13.550781 6.265625 -12.625 C 5.742188 -11.707031 5.484375 -10.65625 5.484375 -9.46875 C 5.484375 -8.289062 5.742188 -7.242188 6.265625 -6.328125 C 6.796875 -5.410156 7.523438 -4.691406 8.453125 -4.171875 C 9.378906 -3.660156 10.4375 -3.40625 11.625 -3.40625 C 12.894531 -3.40625 14.03125 -3.675781 15.03125 -4.21875 Z M 15.03125 -9.765625 "/></g></g></g></svg>