<svg xmlns="http://www.w3.org/2000/svg" xmlns:xlink="http://www.w3.org/1999/xlink" width="475" zoomAndPan="magnify" viewBox="0 0 356.25 131.249995" height="175" preserveAspectRatio="xMidYMid meet" version="1.0"><defs><g/><clipPath id="ea38197c59"><path d="M 10.011719 70 L 80.855469 70 L 80.855469 76.597656 L 10.011719 76.597656 Z M 10.011719 70 " clip-rule="nonzero"/></clipPath><clipPath id="e6e0c850db"><path d="M 10.011719 62 L 80.855469 62 L 80.855469 69 L 10.011719 69 Z M 10.011719 62 " clip-rule="nonzero"/></clipPath><clipPath id="54b4fe6bb0"><path d="M 10.011719 54.226562 L 80.855469 54.226562 L 80.855469 60 L 10.011719 60 Z M 10.011719 54.226562 " clip-rule="nonzero"/></clipPath></defs><g clip-path="url(#ea38197c59)"><path fill="#2196f3" d="M 79.808594 76.273438 C 77.625 76.273438 76.503906 75.070312 75.601562 74.105469 C 74.699219 73.136719 74.128906 72.589844 72.933594 72.589844 C 71.738281 72.589844 71.167969 73.136719 70.265625 74.105469 C 69.363281 75.070312 68.242188 76.273438 66.0625 76.273438 C 63.878906 76.273438 62.757812 75.070312 61.859375 74.105469 C 60.953125 73.136719 60.382812 72.589844 59.1875 72.589844 C 57.992188 72.589844 57.421875 73.136719 56.519531 74.105469 C 55.617188 75.070312 54.5 76.273438 52.316406 76.273438 C 50.132812 76.273438 49.011719 75.070312 48.113281 74.105469 C 47.207031 73.136719 46.636719 72.589844 45.441406 72.589844 C 44.246094 72.589844 43.675781 73.136719 42.773438 74.105469 C 41.871094 75.070312 40.75 76.273438 38.566406 76.273438 C 36.386719 76.273438 35.265625 75.070312 34.363281 74.105469 C 33.460938 73.136719 32.890625 72.589844 31.695312 72.589844 C 30.496094 72.589844 29.929688 73.136719 29.023438 74.105469 C 28.125 75.070312 27.003906 76.273438 24.820312 76.273438 C 22.636719 76.273438 21.515625 75.070312 20.613281 74.105469 C 19.710938 73.136719 19.140625 72.589844 17.945312 72.589844 C 16.746094 72.589844 16.179688 73.136719 15.273438 74.105469 C 14.371094 75.070312 13.25 76.273438 11.070312 76.273438 C 10.511719 76.273438 10.054688 75.855469 10.054688 75.335938 C 10.054688 74.820312 10.511719 74.402344 11.070312 74.402344 C 12.265625 74.402344 12.835938 73.851562 13.738281 72.882812 C 14.640625 71.917969 15.761719 70.714844 17.945312 70.714844 C 20.128906 70.714844 21.25 71.917969 22.148438 72.882812 C 23.054688 73.851562 23.625 74.402344 24.820312 74.402344 C 26.015625 74.402344 26.585938 73.851562 27.488281 72.882812 C 28.390625 71.917969 29.511719 70.714844 31.695312 70.714844 C 33.875 70.714844 34.996094 71.917969 35.898438 72.882812 C 36.800781 73.851562 37.371094 74.402344 38.566406 74.402344 C 39.765625 74.402344 40.335938 73.851562 41.238281 72.882812 C 42.136719 71.917969 43.257812 70.714844 45.441406 70.714844 C 47.625 70.714844 48.746094 71.917969 49.644531 72.882812 C 50.550781 73.851562 51.121094 74.402344 52.316406 74.402344 C 53.511719 74.402344 54.082031 73.851562 54.984375 72.882812 C 55.886719 71.917969 57.007812 70.714844 59.1875 70.714844 C 61.371094 70.714844 62.492188 71.917969 63.390625 72.882812 C 64.296875 73.851562 64.867188 74.402344 66.0625 74.402344 C 67.257812 74.402344 67.828125 73.851562 68.730469 72.882812 C 69.632812 71.917969 70.75 70.714844 72.933594 70.714844 C 75.117188 70.714844 76.238281 71.917969 77.136719 72.882812 C 78.042969 73.851562 78.609375 74.402344 79.808594 74.402344 C 80.367188 74.402344 80.820312 74.820312 80.820312 75.335938 C 80.820312 75.855469 80.367188 76.273438 79.808594 76.273438 " fill-opacity="1" fill-rule="nonzero"/></g><g clip-path="url(#e6e0c850db)"><path fill="#2196f3" d="M 79.808594 68.027344 C 77.625 68.027344 76.503906 66.828125 75.601562 65.863281 C 74.699219 64.890625 74.128906 64.34375 72.933594 64.34375 C 71.738281 64.34375 71.167969 64.890625 70.265625 65.863281 C 69.363281 66.828125 68.242188 68.027344 66.0625 68.027344 C 63.878906 68.027344 62.757812 66.828125 61.859375 65.863281 C 60.953125 64.890625 60.382812 64.34375 59.1875 64.34375 C 57.992188 64.34375 57.421875 64.890625 56.519531 65.863281 C 55.617188 66.828125 54.5 68.027344 52.316406 68.027344 C 50.132812 68.027344 49.011719 66.828125 48.113281 65.863281 C 47.207031 64.890625 46.636719 64.34375 45.441406 64.34375 C 44.246094 64.34375 43.675781 64.890625 42.773438 65.863281 C 41.871094 66.828125 40.75 68.027344 38.566406 68.027344 C 36.386719 68.027344 35.265625 66.828125 34.363281 65.863281 C 33.460938 64.890625 32.890625 64.34375 31.695312 64.34375 C 30.496094 64.34375 29.929688 64.890625 29.023438 65.863281 C 28.125 66.828125 27.003906 68.027344 24.820312 68.027344 C 22.636719 68.027344 21.515625 66.828125 20.613281 65.863281 C 19.710938 64.890625 19.140625 64.34375 17.945312 64.34375 C 16.746094 64.34375 16.179688 64.890625 15.273438 65.863281 C 14.371094 66.828125 13.25 68.027344 11.070312 68.027344 C 10.511719 68.027344 10.054688 67.609375 10.054688 67.09375 C 10.054688 66.574219 10.511719 66.15625 11.070312 66.15625 C 12.265625 66.15625 12.835938 65.605469 13.738281 64.636719 C 14.640625 63.671875 15.761719 62.46875 17.945312 62.46875 C 20.128906 62.46875 21.25 63.671875 22.148438 64.636719 C 23.054688 65.605469 23.625 66.15625 24.820312 66.15625 C 26.015625 66.15625 26.585938 65.605469 27.488281 64.636719 C 28.390625 63.671875 29.511719 62.46875 31.695312 62.46875 C 33.875 62.46875 34.996094 63.671875 35.898438 64.636719 C 36.800781 65.605469 37.371094 66.15625 38.566406 66.15625 C 39.765625 66.15625 40.335938 65.605469 41.238281 64.636719 C 42.136719 63.671875 43.257812 62.46875 45.441406 62.46875 C 47.625 62.46875 48.746094 63.671875 49.644531 64.636719 C 50.550781 65.605469 51.121094 66.15625 52.316406 66.15625 C 53.511719 66.15625 54.082031 65.605469 54.984375 64.636719 C 55.886719 63.671875 57.007812 62.46875 59.1875 62.46875 C 61.371094 62.46875 62.492188 63.671875 63.390625 64.636719 C 64.296875 65.609375 64.867188 66.15625 66.0625 66.15625 C 67.257812 66.15625 67.828125 65.609375 68.730469 64.636719 C 69.632812 63.671875 70.75 62.46875 72.933594 62.46875 C 75.117188 62.46875 76.238281 63.671875 77.136719 64.636719 C 78.042969 65.609375 78.609375 66.15625 79.808594 66.15625 C 80.367188 66.15625 80.820312 66.574219 80.820312 67.09375 C 80.820312 67.609375 80.367188 68.027344 79.808594 68.027344 " fill-opacity="1" fill-rule="nonzero"/></g><g clip-path="url(#54b4fe6bb0)"><path fill="#2196f3" d="M 79.808594 59.785156 C 77.625 59.785156 76.503906 58.582031 75.601562 57.617188 C 74.699219 56.648438 74.128906 56.097656 72.933594 56.097656 C 71.738281 56.097656 71.167969 56.648438 70.265625 57.617188 C 69.363281 58.582031 68.242188 59.785156 66.0625 59.785156 C 63.878906 59.785156 62.757812 58.582031 61.859375 57.617188 C 60.953125 56.648438 60.382812 56.097656 59.1875 56.097656 C 57.992188 56.097656 57.421875 56.648438 56.519531 57.617188 C 55.617188 58.582031 54.5 59.785156 52.316406 59.785156 C 50.132812 59.785156 49.011719 58.582031 48.113281 57.617188 C 47.207031 56.648438 46.636719 56.097656 45.441406 56.097656 C 44.246094 56.097656 43.675781 56.648438 42.773438 57.617188 C 41.871094 58.582031 40.75 59.785156 38.566406 59.785156 C 36.386719 59.785156 35.265625 58.582031 34.363281 57.617188 C 33.460938 56.648438 32.890625 56.097656 31.695312 56.097656 C 30.496094 56.097656 29.929688 56.648438 29.023438 57.617188 C 28.125 58.582031 27.003906 59.785156 24.820312 59.785156 C 22.636719 59.785156 21.515625 58.582031 20.613281 57.617188 C 19.710938 56.648438 19.140625 56.097656 17.945312 56.097656 C 16.746094 56.097656 16.179688 56.648438 15.273438 57.617188 C 14.371094 58.582031 13.25 59.785156 11.070312 59.785156 C 10.511719 59.785156 10.054688 59.363281 10.054688 58.847656 C 10.054688 58.332031 10.511719 57.910156 11.070312 57.910156 C 12.265625 57.910156 12.835938 57.363281 13.738281 56.394531 C 14.640625 55.425781 15.761719 54.226562 17.945312 54.226562 C 20.128906 54.226562 21.25 55.425781 22.148438 56.394531 C 23.054688 57.363281 23.625 57.910156 24.820312 57.910156 C 26.015625 57.910156 26.585938 57.363281 27.488281 56.394531 C 28.390625 55.425781 29.511719 54.226562 31.695312 54.226562 C 33.875 54.226562 34.996094 55.425781 35.898438 56.394531 C 36.800781 57.363281 37.371094 57.910156 38.566406 57.910156 C 39.765625 57.910156 40.335938 57.363281 41.238281 56.394531 C 42.136719 55.425781 43.257812 54.226562 45.441406 54.226562 C 47.625 54.226562 48.746094 55.425781 49.644531 56.394531 C 50.550781 57.363281 51.121094 57.910156 52.316406 57.910156 C 53.511719 57.910156 54.082031 57.363281 54.984375 56.394531 C 55.886719 55.425781 57.007812 54.226562 59.1875 54.226562 C 61.371094 54.226562 62.492188 55.425781 63.390625 56.394531 C 64.296875 57.363281 64.867188 57.910156 66.0625 57.910156 C 67.257812 57.910156 67.828125 57.363281 68.730469 56.394531 C 69.632812 55.425781 70.75 54.226562 72.933594 54.226562 C 75.117188 54.226562 76.238281 55.425781 77.136719 56.394531 C 78.042969 57.363281 78.609375 57.910156 79.808594 57.910156 C 80.367188 57.910156 80.820312 58.332031 80.820312 58.847656 C 80.820312 59.363281 80.367188 59.785156 79.808594 59.785156 " fill-opacity="1" fill-rule="nonzero"/></g><g fill="#ffffff" fill-opacity="1"><g transform="translate(87.595155, 74.200987)"><g><path d="M 22.71875 2.03125 C 22.101562 2.789062 21.359375 3.367188 20.484375 3.765625 C 19.609375 4.160156 18.648438 4.359375 17.609375 4.359375 C 16.203125 4.359375 14.929688 4.054688 13.796875 3.453125 C 12.660156 2.847656 11.363281 1.78125 9.90625 0.25 C 8.1875 0.03125 6.65625 -0.519531 5.3125 -1.40625 C 3.96875 -2.289062 2.921875 -3.429688 2.171875 -4.828125 C 1.429688 -6.222656 1.0625 -7.769531 1.0625 -9.46875 C 1.0625 -11.320312 1.503906 -12.992188 2.390625 -14.484375 C 3.285156 -15.972656 4.519531 -17.140625 6.09375 -17.984375 C 7.675781 -18.828125 9.445312 -19.25 11.40625 -19.25 C 13.375 -19.25 15.140625 -18.828125 16.703125 -17.984375 C 18.273438 -17.140625 19.507812 -15.972656 20.40625 -14.484375 C 21.3125 -12.992188 21.765625 -11.320312 21.765625 -9.46875 C 21.765625 -7.269531 21.144531 -5.335938 19.90625 -3.671875 C 18.675781 -2.015625 17.046875 -0.863281 15.015625 -0.21875 C 15.460938 0.25 15.894531 0.585938 16.3125 0.796875 C 16.738281 1.003906 17.195312 1.109375 17.6875 1.109375 C 18.863281 1.109375 19.890625 0.640625 20.765625 -0.296875 Z M 5.484375 -9.46875 C 5.484375 -8.289062 5.738281 -7.242188 6.25 -6.328125 C 6.769531 -5.410156 7.476562 -4.691406 8.375 -4.171875 C 9.28125 -3.660156 10.289062 -3.40625 11.40625 -3.40625 C 12.53125 -3.40625 13.539062 -3.660156 14.4375 -4.171875 C 15.34375 -4.691406 16.050781 -5.410156 16.5625 -6.328125 C 17.082031 -7.242188 17.34375 -8.289062 17.34375 -9.46875 C 17.34375 -10.632812 17.082031 -11.675781 16.5625 -12.59375 C 16.050781 -13.519531 15.34375 -14.238281 14.4375 -14.75 C 13.539062 -15.269531 12.53125 -15.53125 11.40625 -15.53125 C 10.289062 -15.53125 9.28125 -15.269531 8.375 -14.75 C 7.476562 -14.238281 6.769531 -13.519531 6.25 -12.59375 C 5.738281 -11.675781 5.484375 -10.632812 5.484375 -9.46875 Z M 5.484375 -9.46875 "/></g></g></g><g fill="#ffffff" fill-opacity="1"><g transform="translate(115.777475, 74.200987)"><g><path d="M 10.65625 0.328125 C 7.945312 0.328125 5.835938 -0.421875 4.328125 -1.921875 C 2.828125 -3.421875 2.078125 -5.554688 2.078125 -8.328125 L 2.078125 -18.9375 L 6.46875 -18.9375 L 6.46875 -8.5 C 6.46875 -5.101562 7.875 -3.40625 10.6875 -3.40625 C 12.050781 -3.40625 13.09375 -3.816406 13.8125 -4.640625 C 14.539062 -5.460938 14.90625 -6.75 14.90625 -8.5 L 14.90625 -18.9375 L 19.234375 -18.9375 L 19.234375 -8.328125 C 19.234375 -5.554688 18.476562 -3.421875 16.96875 -1.921875 C 15.46875 -0.421875 13.363281 0.328125 10.65625 0.328125 Z M 10.65625 0.328125 "/></g></g></g><g fill="#ffffff" fill-opacity="1"><g transform="translate(142.445299, 74.200987)"><g><path d="M 16.90625 -3.515625 L 16.90625 0 L 2.25 0 L 2.25 -18.9375 L 16.546875 -18.9375 L 16.546875 -15.421875 L 6.59375 -15.421875 L 6.59375 -11.3125 L 15.390625 -11.3125 L 15.390625 -7.890625 L 6.59375 -7.890625 L 6.59375 -3.515625 Z M 16.90625 -3.515625 "/></g></g></g><g fill="#ffffff" fill-opacity="1"><g transform="translate(165.948899, 74.200987)"><g><path d="M 14.3125 0 L 10.65625 -5.28125 L 6.625 -5.28125 L 6.625 0 L 2.25 0 L 2.25 -18.9375 L 10.4375 -18.9375 C 12.113281 -18.9375 13.566406 -18.65625 14.796875 -18.09375 C 16.035156 -17.53125 16.988281 -16.734375 17.65625 -15.703125 C 18.320312 -14.679688 18.65625 -13.46875 18.65625 -12.0625 C 18.65625 -10.65625 18.316406 -9.441406 17.640625 -8.421875 C 16.972656 -7.398438 16.015625 -6.617188 14.765625 -6.078125 L 19.015625 0 Z M 14.234375 -12.0625 C 14.234375 -13.125 13.890625 -13.9375 13.203125 -14.5 C 12.515625 -15.070312 11.515625 -15.359375 10.203125 -15.359375 L 6.625 -15.359375 L 6.625 -8.765625 L 10.203125 -8.765625 C 11.515625 -8.765625 12.515625 -9.050781 13.203125 -9.625 C 13.890625 -10.207031 14.234375 -11.019531 14.234375 -12.0625 Z M 14.234375 -12.0625 "/></g></g></g><g fill="#ffffff" fill-opacity="1"><g transform="translate(191.183359, 74.200987)"><g><path d="M 11.328125 -6.703125 L 11.328125 0 L 6.953125 0 L 6.953125 -6.765625 L -0.375 -18.9375 L 4.265625 -18.9375 L 9.328125 -10.515625 L 14.390625 -18.9375 L 18.6875 -18.9375 Z M 11.328125 -6.703125 "/></g></g></g><g fill="#ffffff" fill-opacity="1"><g transform="translate(214.822177, 74.200987)"><g/></g></g><g fill="#ffffff" fill-opacity="1"><g transform="translate(227.832445, 74.200987)"><g><path d="M 2.25 -18.9375 L 6.625 -18.9375 L 6.625 -3.5625 L 16.125 -3.5625 L 16.125 0 L 2.25 0 Z M 2.25 -18.9375 "/></g></g></g><g fill="#ffffff" fill-opacity="1"><g transform="translate(249.524055, 74.200987)"><g><path d="M 16.90625 -3.515625 L 16.90625 0 L 2.25 0 L 2.25 -18.9375 L 16.546875 -18.9375 L 16.546875 -15.421875 L 6.59375 -15.421875 L 6.59375 -11.3125 L 15.390625 -11.3125 L 15.390625 -7.890625 L 6.59375 -7.890625 L 6.59375 -3.515625 Z M 16.90625 -3.515625 "/></g></g></g><g fill="#ffffff" fill-opacity="1"><g transform="translate(273.027656, 74.200987)"><g><path d="M 20.453125 -18.9375 L 12.25 0 L 7.921875 0 L -0.25 -18.9375 L 4.484375 -18.9375 L 10.25 -5.40625 L 16.09375 -18.9375 Z M 20.453125 -18.9375 "/></g></g></g><g fill="#ffffff" fill-opacity="1"><g transform="translate(298.559609, 74.200987)"><g><path d="M 16.90625 -3.515625 L 16.90625 0 L 2.25 0 L 2.25 -18.9375 L 16.546875 -18.9375 L 16.546875 -15.421875 L 6.59375 -15.421875 L 6.59375 -11.3125 L 15.390625 -11.3125 L 15.390625 -7.890625 L 6.59375 -7.890625 L 6.59375 -3.515625 Z M 16.90625 -3.515625 "/></g></g></g><g fill="#ffffff" fill-opacity="1"><g transform="translate(322.06321, 74.200987)"><g><path d="M 2.25 -18.9375 L 6.625 -18.9375 L 6.625 -3.5625 L 16.125 -3.5625 L 16.125 0 L 2.25 0 Z M 2.25 -18.9375 "/></g></g></g></svg>